# Blender v2.93.6 OBJ File: 'lamp.blend'
# www.blender.org
mtllib lamp.mtl
o Cube
v 0.500000 3.000000 -0.675778
v 0.500000 1.000000 -1.000000
v 0.500000 3.000000 0.675778
v 0.500000 1.000000 1.000000
v -0.500000 3.000000 -0.675778
v -0.500000 1.000000 -1.000000
v -0.500000 3.000000 0.675778
v -0.500000 1.000000 1.000000
v -0.500000 1.000000 -0.333333
v -0.500000 1.000000 0.333333
v 0.500000 1.000000 0.333333
v 0.500000 1.000000 -0.333333
v -0.500000 0.000000 -0.833333
v -0.500000 0.000000 0.833333
v 0.500000 0.000000 0.833333
v 0.500000 0.000000 -0.833333
v -0.500000 0.000000 -0.833333
v 0.500000 0.000000 -0.833333
v -0.500000 0.000000 -0.833333
v 0.500000 0.000000 -0.833333
v -0.500000 0.000000 0.833333
v 0.500000 0.000000 0.833333
v -0.500000 0.000000 0.833333
v 0.500000 0.000000 0.833333
v -0.500000 0.000000 -0.277778
v -0.500000 0.000000 0.277778
v 0.500000 0.000000 0.277778
v 0.500000 0.000000 -0.277778
v -0.500000 0.500000 0.000000
v 0.500000 0.500000 -0.000000
vt 0.625000 0.500000
vt 0.875000 0.500000
vt 0.875000 0.750000
vt 0.625000 0.750000
vt 0.375000 0.750000
vt 0.625000 1.000000
vt 0.375000 1.000000
vt 0.375000 0.666667
vt 0.375000 0.666667
vt 0.375000 0.638889
vt 0.375000 0.625000
vt 0.375000 0.611111
vt 0.375000 0.583333
vt 0.375000 0.583333
vt 0.375000 0.500000
vt 0.375000 0.250000
vt 0.625000 0.250000
vt 0.125000 0.500000
vt 0.125000 0.583333
vt 0.125000 0.666667
vt 0.125000 0.750000
vt 0.000000 0.000000
vt 0.000000 0.000000
vt 0.000000 0.000000
vt 0.000000 0.000000
vt 0.000000 0.000000
vt 0.000000 0.000000
vt 0.125000 0.666667
vt 0.125000 0.583333
vt 0.000000 0.000000
vt 0.000000 0.000000
vt 0.000000 0.000000
vt 0.000000 0.000000
vt 0.000000 0.000000
vt 0.000000 0.000000
vt 0.000000 0.000000
vt 0.000000 0.000000
vt 0.125000 0.625000
vt 0.375000 0.138889
vt 0.375000 0.166667
vt 0.375000 0.166667
vt 0.375000 0.125000
vt 0.375000 0.111111
vt 0.375000 0.083333
vt 0.375000 0.083333
vt 0.375000 0.000000
vt 0.625000 0.000000
vn 0.0000 1.0000 0.0000
vn 0.0000 0.1600 0.9871
vn 1.0000 0.0000 0.0000
vn 0.0000 0.1600 -0.9871
vn 0.0000 -1.0000 0.0000
vn 0.0000 0.0000 1.0000
vn 0.0000 0.4472 0.8944
vn 0.0000 0.4472 -0.8944
vn 0.0000 -0.4856 0.8742
vn -1.0000 0.0000 0.0000
vn -0.0000 -0.4856 -0.8742
usemtl Material
s off
f 1/1/1 5/2/1 7/3/1 3/4/1
f 4/5/2 3/4/2 7/6/2 8/7/2
f 11/8/3 15/9/3 27/10/3 30/11/3 28/12/3 16/13/3 12/14/3 2/15/3 1/1/3 3/4/3 4/5/3
f 6/16/4 5/17/4 1/1/4 2/15/4
f 6/18/5 2/15/5 12/14/5 9/19/5
f 10/20/5 11/8/5 4/5/5 8/21/5
f 21/22/6 15/23/6 14/24/6 22/25/6
f 26/26/5 27/27/5 15/23/5 14/24/5
f 11/8/7 10/20/7 14/28/7 15/9/7
f 9/19/8 12/14/8 16/13/8 13/29/8
f 13/30/6 16/31/6 18/32/6 17/33/6
f 17/33/6 18/32/6 20/34/6 19/35/6
f 22/25/6 21/22/6 23/36/6 24/37/6
f 30/11/9 29/38/9 25/39/9 28/12/9
f 9/40/10 13/41/10 25/39/10 29/42/10 26/43/10 14/44/10 10/45/10 8/46/10 7/47/10 5/17/10 6/16/10
f 29/38/11 30/11/11 27/10/11 26/26/11
f 28/12/5 25/39/5 19/35/5 13/30/5 20/34/5 16/13/5
