# Blender v2.93.6 OBJ File: 'lamp2.blend'
# www.blender.org
mtllib lamp2fixed.mtl
o Cube
v 0.500000 3.000000 -0.675778
v 0.500000 1.200000 -1.000000
v 0.500000 3.000000 0.675778
v 0.500000 1.200000 1.000000
v -0.500000 3.000000 -0.675778
v -0.500000 1.200000 -1.000000
v -0.500000 3.000000 0.675778
v -0.500000 1.200000 1.000000
v -0.500000 1.200000 -0.333333
v -0.500000 1.200000 0.333333
v 0.500000 1.200000 0.333333
v 0.500000 1.200000 -0.333333
v -0.500000 0.403424 0.333333
v -0.500000 0.403424 -0.333333
v 0.500000 0.403424 0.333333
v 0.500000 0.403424 -0.333333
v 0.500000 0.000000 -0.733333
v -0.500000 0.000000 -0.733333
v 0.500000 0.403424 -0.733333
v -0.500000 0.403424 -0.733333
v 0.500000 0.000000 0.733333
v -0.500000 0.000000 0.733333
v -0.500000 0.403424 0.733333
v 0.500000 0.403424 0.733333
vt 0.625000 0.500000
vt 0.875000 0.500000
vt 0.875000 0.750000
vt 0.625000 0.750000
vt 0.375000 0.750000
vt 0.625000 1.000000
vt 0.375000 1.000000
vt 0.375000 0.250000
vt 0.625000 0.250000
vt 0.375000 0.500000
vt 0.125000 0.500000
vt 0.375000 0.583333
vt 0.125000 0.583333
vt 0.125000 0.666667
vt 0.375000 0.666667
vt 0.125000 0.750000
vt 0.375000 0.666667
vt 0.375000 0.583333
vt 0.125000 0.583333
vt 0.125000 0.666667
vt 0.125000 0.666667
vt 0.375000 0.666667
vt 0.375000 0.666667
vt 0.125000 0.666667
vt 0.000000 0.000000
vt 0.000000 0.000000
vt 0.000000 0.000000
vt 0.000000 0.000000
vt 0.000000 0.000000
vt 0.000000 0.000000
vt 0.000000 0.000000
vt 0.375000 0.583333
vt 0.125000 0.583333
vt 0.125000 0.583333
vt 0.375000 0.583333
vt 0.000000 0.000000
vt 0.000000 0.000000
vt 0.000000 0.000000
vt 0.000000 0.000000
vt 0.000000 0.000000
vt 0.000000 0.000000
vt 0.000000 0.000000
vt 0.000000 0.000000
vn 0.0000 1.0000 0.0000
vn 0.0000 0.1773 0.9842
vn 0.0000 0.1773 -0.9842
vn 0.0000 -1.0000 0.0000
vn 1.0000 0.0000 0.0000
vn 0.0000 0.0000 1.0000
vn 0.0000 0.0000 -1.0000
vn -1.0000 0.0000 0.0000
usemtl Material
s off
f 1/1/1 5/2/1 7/3/1 3/4/1
f 4/5/2 3/4/2 7/6/2 8/7/2
f 6/8/3 5/9/3 1/1/3 2/10/3
f 6/11/4 2/10/4 12/12/4 9/13/4
f 10/14/4 11/15/4 4/5/4 8/16/4
f 21/17/1 17/18/1 18/19/1 22/20/1
f 13/21/4 15/22/4 24/23/4 23/24/4
f 2/10/5 1/1/5 3/4/5 4/5/5 11/25/5 15/26/5 24/27/5 21/28/5 17/29/5 19/30/5 16/31/5 12/12/5
f 16/32/4 14/33/4 20/34/4 19/35/4
f 12/12/6 9/13/6 14/33/6 16/32/6
f 10/14/7 11/15/7 15/22/7 13/21/7
f 19/35/6 20/34/6 18/19/6 17/18/6
f 10/36/8 8/7/8 7/3/8 5/9/8 6/11/8 9/37/8 14/38/8 20/39/8 18/40/8 22/41/8 23/42/8 13/43/8
f 23/24/7 24/23/7 21/17/7 22/20/7
