# Blender v2.93.6 OBJ File: ''
# www.blender.org
mtllib stoel.mtl
o Cube_Cube.001
v 0.103319 0.564985 1.380132
v 0.103319 0.757440 1.380132
v 0.103319 0.564985 -1.380132
v 0.103319 0.757440 -1.380132
v -0.103319 0.564985 1.380132
v -0.103319 0.757440 1.380132
v -0.103319 0.564985 -1.380132
v -0.103319 0.757440 -1.380132
vt 0.375000 0.000000
vt 0.375000 0.250000
vt 0.625000 0.250000
vt 0.625000 0.000000
vt 0.375000 0.500000
vt 0.625000 0.500000
vt 0.375000 0.750000
vt 0.625000 0.750000
vt 0.375000 1.000000
vt 0.625000 1.000000
vt 0.125000 0.500000
vt 0.125000 0.750000
vt 0.875000 0.750000
vt 0.875000 0.500000
vn 1.0000 0.0000 0.0000
vn 0.0000 0.0000 -1.0000
vn -1.0000 0.0000 0.0000
vn 0.0000 0.0000 1.0000
vn 0.0000 -1.0000 0.0000
vn 0.0000 1.0000 0.0000
usemtl Material.003
s off
f 1/1/1 3/2/1 4/3/1 2/4/1
f 3/2/2 7/5/2 8/6/2 4/3/2
f 7/5/3 5/7/3 6/8/3 8/6/3
f 5/7/4 1/9/4 2/10/4 6/8/4
f 3/11/5 1/12/5 5/7/5 7/5/5
f 8/6/6 6/8/6 2/13/6 4/14/6
o Cube.001_Cube.002
v 0.487534 1.158815 1.355662
v 0.487534 1.351271 1.355662
v 0.487534 1.158815 -1.355662
v 0.487534 1.351271 -1.355662
v 0.280895 1.158815 1.355662
v 0.280895 1.351271 1.355662
v 0.280895 1.158815 -1.355662
v 0.280895 1.351271 -1.355662
vt 0.375000 0.000000
vt 0.375000 0.250000
vt 0.625000 0.250000
vt 0.625000 0.000000
vt 0.375000 0.500000
vt 0.375000 0.750000
vt 0.625000 0.750000
vt 0.625000 0.500000
vt 0.125000 0.500000
vt 0.125000 0.750000
vt 0.875000 0.750000
vt 0.875000 0.500000
vt 0.375000 1.000000
vt 0.625000 1.000000
vn 1.0000 0.0000 0.0000
vn -1.0000 0.0000 0.0000
vn 0.0000 -1.0000 0.0000
vn 0.0000 1.0000 0.0000
vn 0.0000 0.0000 -1.0000
vn 0.0000 0.0000 1.0000
usemtl Material.004
s off
f 9/15/7 11/16/7 12/17/7 10/18/7
f 15/19/8 13/20/8 14/21/8 16/22/8
f 11/23/9 9/24/9 13/20/9 15/19/9
f 16/22/10 14/21/10 10/25/10 12/26/10
usemtl Material.007
f 11/16/11 15/19/11 16/22/11 12/17/11
f 13/20/12 9/27/12 10/28/12 14/21/12
o Cube.002_Cube.004
v 2.529003 0.564985 1.380132
v 2.529003 0.757440 1.380132
v 2.529003 0.564985 -1.380132
v 2.529003 0.757440 -1.380132
v 2.322364 0.564985 1.380132
v 2.322364 0.757440 1.380132
v 2.322364 0.564985 -1.380132
v 2.322364 0.757440 -1.380132
vt 0.375000 0.000000
vt 0.375000 0.250000
vt 0.625000 0.250000
vt 0.625000 0.000000
vt 0.375000 0.500000
vt 0.375000 0.750000
vt 0.625000 0.750000
vt 0.625000 0.500000
vt 0.125000 0.500000
vt 0.125000 0.750000
vt 0.875000 0.750000
vt 0.875000 0.500000
vt 0.375000 1.000000
vt 0.625000 1.000000
vn 1.0000 0.0000 0.0000
vn -1.0000 0.0000 0.0000
vn 0.0000 -1.0000 0.0000
vn 0.0000 1.0000 0.0000
vn 0.0000 0.0000 -1.0000
vn 0.0000 0.0000 1.0000
usemtl Material.003
s off
f 17/29/13 19/30/13 20/31/13 18/32/13
f 23/33/14 21/34/14 22/35/14 24/36/14
f 19/37/15 17/38/15 21/34/15 23/33/15
f 24/36/16 22/35/16 18/39/16 20/40/16
usemtl Material.007
f 19/30/17 23/33/17 24/36/17 20/31/17
f 21/34/18 17/41/18 18/42/18 22/35/18
o Cube.003_Cube.005
v 2.529003 1.371497 1.380132
v 2.529003 1.563952 1.380132
v 2.529003 1.371497 -1.380132
v 2.529003 1.563952 -1.380132
v 2.322364 1.371497 1.380132
v 2.322364 1.563952 1.380132
v 2.322364 1.371497 -1.380132
v 2.322364 1.563952 -1.380132
vt 0.375000 0.000000
vt 0.375000 0.250000
vt 0.625000 0.250000
vt 0.625000 0.000000
vt 0.375000 0.500000
vt 0.375000 0.750000
vt 0.625000 0.750000
vt 0.625000 0.500000
vt 0.125000 0.500000
vt 0.125000 0.750000
vt 0.875000 0.750000
vt 0.875000 0.500000
vt 0.375000 1.000000
vt 0.625000 1.000000
vn 1.0000 0.0000 0.0000
vn -1.0000 0.0000 0.0000
vn 0.0000 -1.0000 0.0000
vn 0.0000 1.0000 0.0000
vn 0.0000 0.0000 -1.0000
vn 0.0000 0.0000 1.0000
usemtl Material.005
s off
f 25/43/19 27/44/19 28/45/19 26/46/19
f 31/47/20 29/48/20 30/49/20 32/50/20
f 27/51/21 25/52/21 29/48/21 31/47/21
f 32/50/22 30/49/22 26/53/22 28/54/22
usemtl Material.007
f 27/44/23 31/47/23 32/50/23 28/45/23
f 29/48/24 25/55/24 26/56/24 30/49/24
o Cube.004_Cube.006
v 2.747153 0.014930 1.052052
v 2.747153 0.014919 1.244507
v 2.747153 1.815773 1.052157
v 2.747153 1.815762 1.244613
v 2.540514 0.014930 1.052052
v 2.540514 0.014919 1.244507
v 2.540514 1.815773 1.052157
v 2.540514 1.815762 1.244613
vt 0.375000 0.000000
vt 0.375000 0.250000
vt 0.625000 0.250000
vt 0.625000 0.000000
vt 0.375000 0.500000
vt 0.375000 0.750000
vt 0.625000 0.750000
vt 0.625000 0.500000
vt 0.375000 1.000000
vt 0.625000 1.000000
vt 0.125000 0.500000
vt 0.125000 0.750000
vt 0.875000 0.750000
vt 0.875000 0.500000
vn 1.0000 0.0000 0.0000
vn -1.0000 -0.0000 0.0000
vn 0.0000 -1.0000 -0.0001
vn 0.0000 0.0001 -1.0000
vn 0.0000 -0.0001 1.0000
vn 0.0000 1.0000 0.0001
usemtl Material.003
s off
f 33/57/25 35/58/25 36/59/25 34/60/25
f 39/61/26 37/62/26 38/63/26 40/64/26
f 37/62/27 33/65/27 34/66/27 38/63/27
f 35/67/28 33/68/28 37/62/28 39/61/28
f 40/64/29 38/63/29 34/69/29 36/70/29
usemtl Material.007
f 35/58/30 39/61/30 40/64/30 36/59/30
o Cube.005_Cube.007
v 2.747153 0.014930 -1.276996
v 2.747153 0.014919 -1.084541
v 2.747153 1.815773 -1.276891
v 2.747153 1.815762 -1.084435
v 2.540514 0.014930 -1.276996
v 2.540514 0.014919 -1.084541
v 2.540514 1.815773 -1.276891
v 2.540514 1.815762 -1.084435
vt 0.375000 0.000000
vt 0.375000 0.250000
vt 0.625000 0.250000
vt 0.625000 0.000000
vt 0.375000 0.500000
vt 0.375000 0.750000
vt 0.625000 0.750000
vt 0.625000 0.500000
vt 0.375000 1.000000
vt 0.625000 1.000000
vt 0.125000 0.500000
vt 0.125000 0.750000
vt 0.875000 0.750000
vt 0.875000 0.500000
vn 1.0000 0.0000 0.0000
vn -1.0000 -0.0000 0.0000
vn 0.0000 -1.0000 -0.0001
vn 0.0000 0.0001 -1.0000
vn 0.0000 -0.0001 1.0000
vn 0.0000 1.0000 0.0001
usemtl Material.004
s off
f 41/71/31 43/72/31 44/73/31 42/74/31
f 47/75/32 45/76/32 46/77/32 48/78/32
f 45/76/33 41/79/33 42/80/33 46/77/33
f 43/81/34 41/82/34 45/76/34 47/75/34
f 48/78/35 46/77/35 42/83/35 44/84/35
usemtl Material.007
f 43/72/36 47/75/36 48/78/36 44/73/36
o Cube.006_Cube.008
v 0.279991 0.168923 1.052033
v 0.279991 0.168912 1.244488
v 0.279991 2.615855 1.052176
v 0.279991 2.615843 1.244632
v 0.105390 0.168923 1.052033
v 0.105390 0.168912 1.244488
v 0.105390 2.615855 1.052176
v 0.105390 2.615843 1.244632
vt 0.375000 0.000000
vt 0.375000 0.250000
vt 0.625000 0.250000
vt 0.625000 0.000000
vt 0.375000 0.500000
vt 0.625000 0.500000
vt 0.375000 0.750000
vt 0.625000 0.750000
vt 0.375000 1.000000
vt 0.625000 1.000000
vt 0.125000 0.500000
vt 0.125000 0.750000
vt 0.875000 0.750000
vt 0.875000 0.500000
vn 1.0000 -0.0000 0.0000
vn 0.0000 1.0000 0.0001
vn -1.0000 -0.0000 0.0000
vn 0.0000 -1.0000 -0.0001
vn 0.0000 0.0001 -1.0000
vn 0.0000 -0.0001 1.0000
usemtl Material.003
s off
f 49/85/37 51/86/37 52/87/37 50/88/37
f 51/86/38 55/89/38 56/90/38 52/87/38
f 55/89/39 53/91/39 54/92/39 56/90/39
f 53/91/40 49/93/40 50/94/40 54/92/40
f 51/95/41 49/96/41 53/91/41 55/89/41
f 56/90/42 54/92/42 50/97/42 52/98/42
o Cube.007_Cube.009
v 0.279991 0.168923 -1.275771
v 0.279991 0.168912 -1.083316
v 0.279991 2.615855 -1.275628
v 0.279991 2.615843 -1.083173
v 0.105390 0.168923 -1.275771
v 0.105390 0.168912 -1.083316
v 0.105390 2.615855 -1.275628
v 0.105390 2.615843 -1.083173
vt 0.375000 0.000000
vt 0.375000 0.250000
vt 0.625000 0.250000
vt 0.625000 0.000000
vt 0.375000 0.500000
vt 0.625000 0.500000
vt 0.375000 0.750000
vt 0.625000 0.750000
vt 0.375000 1.000000
vt 0.625000 1.000000
vt 0.125000 0.500000
vt 0.125000 0.750000
vt 0.875000 0.750000
vt 0.875000 0.500000
vn 1.0000 -0.0000 0.0000
vn 0.0000 1.0000 0.0001
vn -1.0000 -0.0000 0.0000
vn 0.0000 -1.0000 -0.0001
vn 0.0000 0.0001 -1.0000
vn 0.0000 -0.0001 1.0000
usemtl Material.003
s off
f 57/99/43 59/100/43 60/101/43 58/102/43
f 59/100/44 63/103/44 64/104/44 60/101/44
f 63/103/45 61/105/45 62/106/45 64/104/45
f 61/105/46 57/107/46 58/108/46 62/106/46
f 59/109/47 57/110/47 61/105/47 63/103/47
f 64/104/48 62/106/48 58/111/48 60/112/48
o Cube.009_Cube.011
v -0.737500 -0.039525 1.052027
v -0.737500 -0.039536 1.244482
v -0.737500 2.616642 1.052182
v -0.737500 2.616631 1.244638
v -0.912100 -0.039525 1.052027
v -0.912100 -0.039536 1.244482
v -0.912100 2.616642 1.052182
v -0.912100 2.616631 1.244638
vt 0.375000 0.000000
vt 0.375000 0.250000
vt 0.625000 0.250000
vt 0.625000 0.000000
vt 0.375000 0.500000
vt 0.625000 0.500000
vt 0.375000 0.750000
vt 0.625000 0.750000
vt 0.375000 1.000000
vt 0.625000 1.000000
vt 0.125000 0.500000
vt 0.125000 0.750000
vt 0.875000 0.750000
vt 0.875000 0.500000
vn 1.0000 -0.0000 0.0000
vn 0.0000 1.0000 0.0001
vn -1.0000 0.0000 0.0000
vn 0.0000 -1.0000 -0.0001
vn 0.0000 0.0001 -1.0000
vn 0.0000 -0.0001 1.0000
usemtl Material.003
s off
f 65/113/49 67/114/49 68/115/49 66/116/49
f 67/114/50 71/117/50 72/118/50 68/115/50
f 71/117/51 69/119/51 70/120/51 72/118/51
f 69/119/52 65/121/52 66/122/52 70/120/52
f 67/123/53 65/124/53 69/119/53 71/117/53
f 72/118/54 70/120/54 66/125/54 68/126/54
o Cube.008_Cube.010
v -0.737500 -0.039525 -1.275778
v -0.737500 -0.039536 -1.083322
v -0.737500 2.616642 -1.275622
v -0.737500 2.616631 -1.083167
v -0.912100 -0.039525 -1.275778
v -0.912100 -0.039536 -1.083322
v -0.912100 2.616642 -1.275622
v -0.912100 2.616631 -1.083167
vt 0.375000 0.000000
vt 0.375000 0.250000
vt 0.625000 0.250000
vt 0.625000 0.000000
vt 0.375000 0.500000
vt 0.625000 0.500000
vt 0.375000 0.750000
vt 0.625000 0.750000
vt 0.375000 1.000000
vt 0.625000 1.000000
vt 0.125000 0.500000
vt 0.125000 0.750000
vt 0.875000 0.750000
vt 0.875000 0.500000
vn 1.0000 -0.0000 0.0000
vn 0.0000 1.0000 0.0001
vn -1.0000 0.0000 0.0000
vn 0.0000 -1.0000 -0.0001
vn 0.0000 0.0001 -1.0000
vn 0.0000 -0.0001 1.0000
usemtl Material.003
s off
f 73/127/55 75/128/55 76/129/55 74/130/55
f 75/128/56 79/131/56 80/132/56 76/129/56
f 79/131/57 77/133/57 78/134/57 80/132/57
f 77/133/58 73/135/58 74/136/58 78/134/58
f 75/137/59 73/138/59 77/133/59 79/131/59
f 80/132/60 78/134/60 74/139/60 76/140/60
o Cube.010_Cube.012
v 3.019579 0.373270 0.842054
v 3.019579 0.565726 0.842054
v -1.108633 0.373270 0.842380
v -1.108633 0.565726 0.842380
v 3.019595 0.373270 1.048693
v 3.019595 0.565726 1.048693
v -1.108617 0.373270 1.049019
v -1.108617 0.565726 1.049019
vt 0.375000 0.000000
vt 0.375000 0.250000
vt 0.625000 0.250000
vt 0.625000 0.000000
vt 0.375000 0.500000
vt 0.375000 0.750000
vt 0.625000 0.750000
vt 0.625000 0.500000
vt 0.125000 0.500000
vt 0.125000 0.750000
vt 0.875000 0.750000
vt 0.875000 0.500000
vt 0.375000 1.000000
vt 0.625000 1.000000
vn -0.0001 0.0000 -1.0000
vn 0.0001 0.0000 1.0000
vn 0.0000 -1.0000 0.0000
vn 0.0000 1.0000 0.0000
vn -1.0000 0.0000 0.0001
vn 1.0000 0.0000 -0.0001
usemtl Material.004
s off
f 81/141/61 83/142/61 84/143/61 82/144/61
f 87/145/62 85/146/62 86/147/62 88/148/62
f 83/149/63 81/150/63 85/146/63 87/145/63
f 88/148/64 86/147/64 82/151/64 84/152/64
usemtl Material.007
f 83/142/65 87/145/65 88/148/65 84/143/65
f 85/146/66 81/153/66 82/154/66 86/147/66
o Cube.011_Cube.013
v 3.019579 0.373270 -1.081658
v 3.019579 0.565726 -1.081658
v -1.108633 0.373270 -1.081332
v -1.108633 0.565726 -1.081332
v 3.019595 0.373270 -0.875019
v 3.019595 0.565726 -0.875019
v -1.108617 0.373270 -0.874694
v -1.108617 0.565726 -0.874694
vt 0.375000 0.000000
vt 0.375000 0.250000
vt 0.625000 0.250000
vt 0.625000 0.000000
vt 0.375000 0.500000
vt 0.375000 0.750000
vt 0.625000 0.750000
vt 0.625000 0.500000
vt 0.125000 0.500000
vt 0.125000 0.750000
vt 0.875000 0.750000
vt 0.875000 0.500000
vt 0.375000 1.000000
vt 0.625000 1.000000
vn -0.0001 0.0000 -1.0000
vn 0.0001 0.0000 1.0000
vn 0.0000 -1.0000 0.0000
vn 0.0000 1.0000 0.0000
vn -1.0000 0.0000 0.0001
vn 1.0000 0.0000 -0.0001
usemtl Material.003
s off
f 89/155/67 91/156/67 92/157/67 90/158/67
f 95/159/68 93/160/68 94/161/68 96/162/68
f 91/163/69 89/164/69 93/160/69 95/159/69
f 96/162/70 94/161/70 90/165/70 92/166/70
usemtl Material.007
f 91/156/71 95/159/71 96/162/71 92/157/71
f 93/160/72 89/167/72 90/168/72 94/161/72
o Cube.012_Cube.014
v -1.299378 2.539654 0.748653
v -1.299378 2.649602 0.748653
v -1.299378 2.539654 1.343918
v -1.299378 2.649602 1.343918
v 1.121457 2.539654 0.748653
v 1.121457 2.649602 0.748653
v 1.121457 2.539654 1.343918
v 1.121457 2.649602 1.343918
vt 0.375000 0.250000
vt 0.375000 0.500000
vt 0.625000 0.500000
vt 0.625000 0.250000
vt 0.375000 0.750000
vt 0.375000 1.000000
vt 0.625000 1.000000
vt 0.625000 0.750000
vt 0.125000 0.500000
vt 0.125000 0.750000
vt 0.875000 0.750000
vt 0.875000 0.500000
vt 0.375000 0.000000
vt 0.625000 0.000000
vn 0.0000 0.0000 1.0000
vn 0.0000 0.0000 -1.0000
vn 0.0000 -1.0000 0.0000
vn 0.0000 1.0000 0.0000
vn -1.0000 0.0000 0.0000
vn 1.0000 0.0000 0.0000
usemtl Material.004
s off
f 99/169/73 103/170/73 104/171/73 100/172/73
f 101/173/74 97/174/74 98/175/74 102/176/74
f 99/177/75 97/178/75 101/173/75 103/170/75
f 104/171/76 102/176/76 98/179/76 100/180/76
usemtl Material.007
f 97/181/77 99/169/77 100/172/77 98/182/77
f 103/170/78 101/173/78 102/176/78 104/171/78
o Cube.013_Cube.015
v -0.914439 2.346078 1.380132
v -0.914439 2.538533 1.380132
v -0.914439 2.346078 -1.380132
v -0.914439 2.538533 -1.380132
v -1.121077 2.346078 1.380132
v -1.121077 2.538533 1.380132
v -1.121077 2.346078 -1.380132
v -1.121077 2.538533 -1.380132
vt 0.375000 0.000000
vt 0.375000 0.250000
vt 0.625000 0.250000
vt 0.625000 0.000000
vt 0.375000 0.500000
vt 0.375000 0.750000
vt 0.625000 0.750000
vt 0.625000 0.500000
vt 0.125000 0.500000
vt 0.125000 0.750000
vt 0.875000 0.750000
vt 0.875000 0.500000
vt 0.375000 1.000000
vt 0.625000 1.000000
vn 1.0000 0.0000 0.0000
vn -1.0000 0.0000 0.0000
vn 0.0000 -1.0000 0.0000
vn 0.0000 1.0000 0.0000
vn 0.0000 0.0000 -1.0000
vn 0.0000 0.0000 1.0000
usemtl Material.003
s off
f 105/183/79 107/184/79 108/185/79 106/186/79
f 111/187/80 109/188/80 110/189/80 112/190/80
f 107/191/81 105/192/81 109/188/81 111/187/81
f 112/190/82 110/189/82 106/193/82 108/194/82
usemtl Material.007
f 107/184/83 111/187/83 112/190/83 108/185/83
f 109/188/84 105/195/84 106/196/84 110/189/84
o Cube.014_Cube.016
v -1.299378 2.539654 -1.480616
v -1.299378 2.649602 -1.480616
v -1.299378 2.539654 -0.885351
v -1.299378 2.649602 -0.885351
v 1.121457 2.539654 -1.480616
v 1.121457 2.649602 -1.480616
v 1.121457 2.539654 -0.885351
v 1.121457 2.649602 -0.885351
vt 0.375000 0.250000
vt 0.375000 0.500000
vt 0.625000 0.500000
vt 0.625000 0.250000
vt 0.375000 0.750000
vt 0.375000 1.000000
vt 0.625000 1.000000
vt 0.625000 0.750000
vt 0.125000 0.500000
vt 0.125000 0.750000
vt 0.875000 0.750000
vt 0.875000 0.500000
vt 0.375000 0.000000
vt 0.625000 0.000000
vn 0.0000 0.0000 1.0000
vn 0.0000 0.0000 -1.0000
vn 0.0000 -1.0000 0.0000
vn 0.0000 1.0000 0.0000
vn -1.0000 0.0000 0.0000
vn 1.0000 0.0000 0.0000
usemtl Material.004
s off
f 115/197/85 119/198/85 120/199/85 116/200/85
f 117/201/86 113/202/86 114/203/86 118/204/86
f 115/205/87 113/206/87 117/201/87 119/198/87
f 120/199/88 118/204/88 114/207/88 116/208/88
usemtl Material.007
f 113/209/89 115/197/89 116/200/89 114/210/89
f 119/198/90 117/201/90 118/204/90 120/199/90
o Cube.015_Cube.017
v -1.756776 3.928947 -0.881028
v -1.686632 3.971603 -0.881028
v -1.756776 3.928947 0.750449
v -1.686632 3.971603 0.750449
v 0.386132 0.405124 -0.881028
v 0.456276 0.447780 -0.881028
v 0.386132 0.405124 0.750449
v 0.456276 0.447780 0.750449
vt 0.375000 0.000000
vt 0.375000 0.250000
vt 0.625000 0.250000
vt 0.625000 0.000000
vt 0.375000 0.500000
vt 0.625000 0.500000
vt 0.375000 0.750000
vt 0.625000 0.750000
vt 0.375000 1.000000
vt 0.625000 1.000000
vt 0.125000 0.500000
vt 0.125000 0.750000
vt 0.875000 0.750000
vt 0.875000 0.500000
vn -0.5196 0.8544 0.0000
vn 0.0000 0.0000 1.0000
vn 0.5196 -0.8544 0.0000
vn 0.0000 0.0000 -1.0000
vn -0.8544 -0.5196 0.0000
vn 0.8544 0.5196 0.0000
usemtl Material.001
s off
f 121/211/91 123/212/91 124/213/91 122/214/91
f 123/212/92 127/215/92 128/216/92 124/213/92
f 127/215/93 125/217/93 126/218/93 128/216/93
f 125/217/94 121/219/94 122/220/94 126/218/94
f 123/221/95 121/222/95 125/217/95 127/215/95
f 128/216/96 126/218/96 122/223/96 124/224/96
o Cube.016_Cube.018
v 0.190544 1.371565 -0.881028
v 0.183058 1.447605 -0.881028
v 0.190544 1.371565 0.750449
v 0.183058 1.447605 0.750449
v 2.793128 1.627797 -0.881028
v 2.785641 1.703837 -0.881028
v 2.793128 1.627797 0.750449
v 2.785641 1.703837 0.750449
vt 0.375000 0.000000
vt 0.375000 0.250000
vt 0.625000 0.250000
vt 0.625000 0.000000
vt 0.375000 0.500000
vt 0.625000 0.500000
vt 0.375000 0.750000
vt 0.625000 0.750000
vt 0.375000 1.000000
vt 0.625000 1.000000
vt 0.125000 0.500000
vt 0.125000 0.750000
vt 0.875000 0.750000
vt 0.875000 0.500000
vn -0.9952 -0.0980 0.0000
vn 0.0000 0.0000 1.0000
vn 0.9952 0.0980 0.0000
vn -0.0000 0.0000 -1.0000
vn 0.0980 -0.9952 0.0000
vn -0.0980 0.9952 0.0000
usemtl Material.002
s off
f 129/225/97 131/226/97 132/227/97 130/228/97
f 131/226/98 135/229/98 136/230/98 132/227/98
f 135/229/99 133/231/99 134/232/99 136/230/99
f 133/231/100 129/233/100 130/234/100 134/232/100
f 131/235/101 129/236/101 133/231/101 135/229/101
f 136/230/102 134/232/102 130/237/102 132/238/102
