# Blender v2.93.6 OBJ File: ''
# www.blender.org
mtllib table.mtl
o Cube_Cube.007
v 2.148304 -0.052051 0.506169
v 2.148304 0.243666 0.506169
v 2.148304 -0.052051 -0.488903
v 2.148304 0.243666 -0.488903
v 3.143376 -0.052051 0.506169
v 3.143376 0.243666 0.506169
v 3.143376 -0.052051 -0.488903
v 3.143376 0.243666 -0.488903
vt 0.375000 0.000000
vt 0.625000 0.000000
vt 0.625000 0.250000
vt 0.375000 0.250000
vt 0.625000 0.500000
vt 0.375000 0.500000
vt 0.625000 0.750000
vt 0.375000 0.750000
vt 0.625000 1.000000
vt 0.375000 1.000000
vt 0.125000 0.500000
vt 0.125000 0.750000
vt 0.875000 0.500000
vt 0.875000 0.750000
vn -1.0000 0.0000 0.0000
vn 0.0000 0.0000 -1.0000
vn 1.0000 0.0000 0.0000
vn 0.0000 0.0000 1.0000
vn 0.0000 -1.0000 0.0000
vn 0.0000 1.0000 0.0000
usemtl Material.006
s off
f 1/1/1 2/2/1 4/3/1 3/4/1
f 3/4/2 4/3/2 8/5/2 7/6/2
f 7/6/3 8/5/3 6/7/3 5/8/3
f 5/8/4 6/7/4 2/9/4 1/10/4
f 3/11/5 7/6/5 5/8/5 1/12/5
f 8/5/6 4/13/6 2/14/6 6/7/6
o Cube.001_Cube.008
v 2.330107 0.231798 0.324366
v 2.330107 0.419458 0.324366
v 2.330107 0.231798 -0.307100
v 2.330107 0.419458 -0.307100
v 2.961573 0.231798 0.324366
v 2.961573 0.419458 0.324366
v 2.961573 0.231798 -0.307100
v 2.961573 0.419458 -0.307100
vt 0.375000 0.000000
vt 0.625000 0.000000
vt 0.625000 0.250000
vt 0.375000 0.250000
vt 0.625000 0.500000
vt 0.375000 0.500000
vt 0.625000 0.750000
vt 0.375000 0.750000
vt 0.625000 1.000000
vt 0.375000 1.000000
vt 0.125000 0.500000
vt 0.125000 0.750000
vt 0.875000 0.500000
vt 0.875000 0.750000
vn -1.0000 0.0000 0.0000
vn 0.0000 0.0000 -1.0000
vn 1.0000 0.0000 0.0000
vn 0.0000 0.0000 1.0000
vn 0.0000 -1.0000 0.0000
vn 0.0000 1.0000 0.0000
usemtl Material.006
s off
f 9/15/7 10/16/7 12/17/7 11/18/7
f 11/18/8 12/17/8 16/19/8 15/20/8
f 15/20/9 16/19/9 14/21/9 13/22/9
f 13/22/10 14/21/10 10/23/10 9/24/10
f 11/25/11 15/20/11 13/22/11 9/26/11
f 16/19/12 12/27/12 10/28/12 14/21/12
o Cube.002_Cube.009
v 2.439103 0.396339 0.215370
v 2.439103 0.550278 0.215370
v 2.439103 0.396339 -0.198104
v 2.439103 0.550278 -0.198104
v 2.852577 0.396339 0.215370
v 2.852577 0.550278 0.215370
v 2.852577 0.396339 -0.198104
v 2.852577 0.550278 -0.198104
vt 0.375000 0.000000
vt 0.625000 0.000000
vt 0.625000 0.250000
vt 0.375000 0.250000
vt 0.625000 0.500000
vt 0.375000 0.500000
vt 0.625000 0.750000
vt 0.375000 0.750000
vt 0.625000 1.000000
vt 0.375000 1.000000
vt 0.125000 0.500000
vt 0.125000 0.750000
vt 0.875000 0.500000
vt 0.875000 0.750000
vn -1.0000 0.0000 0.0000
vn 0.0000 0.0000 -1.0000
vn 1.0000 0.0000 0.0000
vn 0.0000 0.0000 1.0000
vn 0.0000 -1.0000 0.0000
vn 0.0000 1.0000 0.0000
usemtl Material.006
s off
f 17/29/13 18/30/13 20/31/13 19/32/13
f 19/32/14 20/31/14 24/33/14 23/34/14
f 23/34/15 24/33/15 22/35/15 21/36/15
f 21/36/16 22/35/16 18/37/16 17/38/16
f 19/39/17 23/34/17 21/36/17 17/40/17
f 24/33/18 20/41/18 18/42/18 22/35/18
o Cylinder_Cylinder.006
v 0.059017 1.656425 -2.455142
v 0.059017 0.518788 -2.455142
v 0.542625 1.656425 -2.407511
v 0.542625 0.518788 -2.407511
v 1.007649 1.656425 -2.266448
v 1.007649 0.518788 -2.266448
v 1.436218 1.656425 -2.037373
v 1.436218 0.518788 -2.037373
v 1.811861 1.656425 -1.729090
v 1.811861 0.518788 -1.729090
v 2.120143 1.656425 -1.353447
v 2.120143 0.518788 -1.353447
v 2.349218 1.656425 -0.924878
v 2.349218 0.518788 -0.924878
v 2.490282 1.656425 -0.459855
v 2.490282 0.518788 -0.459855
v 2.537913 1.656425 0.023754
v 2.537913 0.518788 0.023754
v 2.490282 1.656425 0.507363
v 2.490282 0.518788 0.507363
v 2.349218 1.656425 0.972386
v 2.349218 0.518788 0.972386
v 2.120143 1.656425 1.400955
v 2.120143 0.518788 1.400955
v 1.811861 1.656425 1.776598
v 1.811861 0.518788 1.776598
v 1.436217 1.656425 2.084881
v 1.436217 0.518788 2.084881
v 1.007649 1.656425 2.313955
v 1.007649 0.518788 2.313955
v 0.542625 1.656425 2.455019
v 0.542625 0.518788 2.455019
v 0.059016 1.656425 2.502650
v 0.059016 0.518788 2.502650
v -0.424592 1.656425 2.455019
v -0.424592 0.518788 2.455019
v -0.889616 1.656425 2.313955
v -0.889616 0.518788 2.313955
v -1.318184 1.656425 2.084881
v -1.318184 0.518788 2.084881
v -1.693828 1.656425 1.776598
v -1.693828 0.518788 1.776598
v -2.002110 1.656425 1.400955
v -2.002110 0.518788 1.400955
v -2.231185 1.656425 0.972387
v -2.231185 0.518788 0.972387
v -2.372248 1.656425 0.507363
v -2.372248 0.518788 0.507363
v -2.419879 1.656425 0.023754
v -2.419879 0.518788 0.023754
v -2.372248 1.656425 -0.459855
v -2.372248 0.518788 -0.459855
v -2.231184 1.656425 -0.924879
v -2.231184 0.518788 -0.924879
v -2.002110 1.656425 -1.353446
v -2.002110 0.518788 -1.353446
v -1.693828 1.656425 -1.729090
v -1.693828 0.518788 -1.729090
v -1.318184 1.656425 -2.037373
v -1.318184 0.518788 -2.037373
v -0.889616 1.656425 -2.266448
v -0.889616 0.518788 -2.266448
v -0.424592 1.656425 -2.407511
v -0.424592 0.518788 -2.407511
vt 1.000000 0.500000
vt 0.968750 0.500000
vt 0.968750 1.000000
vt 1.000000 1.000000
vt 0.937500 0.500000
vt 0.937500 1.000000
vt 0.906250 0.500000
vt 0.906250 1.000000
vt 0.875000 0.500000
vt 0.875000 1.000000
vt 0.843750 0.500000
vt 0.843750 1.000000
vt 0.812500 0.500000
vt 0.812500 1.000000
vt 0.781250 0.500000
vt 0.781250 1.000000
vt 0.750000 0.500000
vt 0.750000 1.000000
vt 0.718750 0.500000
vt 0.718750 1.000000
vt 0.687500 0.500000
vt 0.687500 1.000000
vt 0.656250 0.500000
vt 0.656250 1.000000
vt 0.625000 0.500000
vt 0.625000 1.000000
vt 0.593750 0.500000
vt 0.593750 1.000000
vt 0.562500 0.500000
vt 0.562500 1.000000
vt 0.531250 0.500000
vt 0.531250 1.000000
vt 0.500000 0.500000
vt 0.500000 1.000000
vt 0.468750 0.500000
vt 0.468750 1.000000
vt 0.437500 0.500000
vt 0.437500 1.000000
vt 0.406250 0.500000
vt 0.406250 1.000000
vt 0.375000 0.500000
vt 0.375000 1.000000
vt 0.343750 0.500000
vt 0.343750 1.000000
vt 0.312500 0.500000
vt 0.312500 1.000000
vt 0.281250 0.500000
vt 0.281250 1.000000
vt 0.250000 0.500000
vt 0.250000 1.000000
vt 0.218750 0.500000
vt 0.218750 1.000000
vt 0.187500 0.500000
vt 0.187500 1.000000
vt 0.156250 0.500000
vt 0.156250 1.000000
vt 0.125000 0.500000
vt 0.125000 1.000000
vt 0.093750 0.500000
vt 0.093750 1.000000
vt 0.062500 0.500000
vt 0.062500 1.000000
vt 0.296822 0.485388
vt 0.341844 0.471731
vt 0.383337 0.449553
vt 0.419706 0.419706
vt 0.449553 0.383337
vt 0.471731 0.341844
vt 0.485388 0.296822
vt 0.490000 0.250000
vt 0.485388 0.203178
vt 0.471731 0.158156
vt 0.449553 0.116663
vt 0.419706 0.080294
vt 0.383337 0.050447
vt 0.341844 0.028269
vt 0.296822 0.014612
vt 0.250000 0.010000
vt 0.203178 0.014612
vt 0.158156 0.028269
vt 0.116663 0.050447
vt 0.080294 0.080294
vt 0.050447 0.116663
vt 0.028269 0.158156
vt 0.014612 0.203178
vt 0.010000 0.250000
vt 0.014612 0.296822
vt 0.028269 0.341844
vt 0.050447 0.383337
vt 0.080294 0.419706
vt 0.116663 0.449553
vt 0.158156 0.471731
vt 0.203178 0.485388
vt 0.250000 0.490000
vt 0.031250 0.500000
vt 0.031250 1.000000
vt 0.000000 0.500000
vt 0.000000 1.000000
vt 0.750000 0.490000
vt 0.703178 0.485388
vt 0.658156 0.471731
vt 0.616663 0.449553
vt 0.580294 0.419706
vt 0.550447 0.383337
vt 0.528269 0.341844
vt 0.514612 0.296822
vt 0.510000 0.250000
vt 0.514612 0.203178
vt 0.528269 0.158156
vt 0.550447 0.116663
vt 0.580294 0.080294
vt 0.616663 0.050447
vt 0.658156 0.028269
vt 0.703178 0.014612
vt 0.750000 0.010000
vt 0.796822 0.014612
vt 0.841844 0.028269
vt 0.883337 0.050447
vt 0.919706 0.080294
vt 0.949553 0.116663
vt 0.971731 0.158156
vt 0.985388 0.203178
vt 0.990000 0.250000
vt 0.985388 0.296822
vt 0.971731 0.341844
vt 0.949553 0.383337
vt 0.919706 0.419706
vt 0.883337 0.449553
vt 0.841844 0.471731
vt 0.796822 0.485388
vn 0.0980 0.0000 -0.9952
vn 0.2903 0.0000 -0.9569
vn 0.4714 0.0000 -0.8819
vn 0.6344 0.0000 -0.7730
vn 0.7730 0.0000 -0.6344
vn 0.8819 0.0000 -0.4714
vn 0.9569 0.0000 -0.2903
vn 0.9952 0.0000 -0.0980
vn 0.9952 0.0000 0.0980
vn 0.9569 0.0000 0.2903
vn 0.8819 0.0000 0.4714
vn 0.7730 0.0000 0.6344
vn 0.6344 0.0000 0.7730
vn 0.4714 0.0000 0.8819
vn 0.2903 0.0000 0.9569
vn 0.0980 0.0000 0.9952
vn -0.0980 0.0000 0.9952
vn -0.2903 0.0000 0.9569
vn -0.4714 0.0000 0.8819
vn -0.6344 0.0000 0.7730
vn -0.7730 0.0000 0.6344
vn -0.8819 0.0000 0.4714
vn -0.9569 0.0000 0.2903
vn -0.9952 0.0000 0.0980
vn -0.9952 0.0000 -0.0980
vn -0.9569 0.0000 -0.2903
vn -0.8819 0.0000 -0.4714
vn -0.7730 0.0000 -0.6344
vn -0.6344 0.0000 -0.7730
vn -0.4714 0.0000 -0.8819
vn 0.0000 -1.0000 0.0000
vn -0.2903 0.0000 -0.9569
vn -0.0980 0.0000 -0.9952
vn 0.0000 1.0000 -0.0000
usemtl Material
s off
f 25/43/19 27/44/19 28/45/19 26/46/19
f 27/44/20 29/47/20 30/48/20 28/45/20
f 29/47/21 31/49/21 32/50/21 30/48/21
f 31/49/22 33/51/22 34/52/22 32/50/22
f 33/51/23 35/53/23 36/54/23 34/52/23
f 35/53/24 37/55/24 38/56/24 36/54/24
f 37/55/25 39/57/25 40/58/25 38/56/25
f 39/57/26 41/59/26 42/60/26 40/58/26
f 41/59/27 43/61/27 44/62/27 42/60/27
f 43/61/28 45/63/28 46/64/28 44/62/28
f 45/63/29 47/65/29 48/66/29 46/64/29
f 47/65/30 49/67/30 50/68/30 48/66/30
f 49/67/31 51/69/31 52/70/31 50/68/31
f 51/69/32 53/71/32 54/72/32 52/70/32
f 53/71/33 55/73/33 56/74/33 54/72/33
f 55/73/34 57/75/34 58/76/34 56/74/34
f 57/75/35 59/77/35 60/78/35 58/76/35
f 59/77/36 61/79/36 62/80/36 60/78/36
f 61/79/37 63/81/37 64/82/37 62/80/37
f 63/81/38 65/83/38 66/84/38 64/82/38
f 65/83/39 67/85/39 68/86/39 66/84/39
f 67/85/40 69/87/40 70/88/40 68/86/40
f 69/87/41 71/89/41 72/90/41 70/88/41
f 71/89/42 73/91/42 74/92/42 72/90/42
f 73/91/43 75/93/43 76/94/43 74/92/43
f 75/93/44 77/95/44 78/96/44 76/94/44
f 77/95/45 79/97/45 80/98/45 78/96/45
f 79/97/46 81/99/46 82/100/46 80/98/46
f 81/99/47 83/101/47 84/102/47 82/100/47
f 83/101/48 85/103/48 86/104/48 84/102/48
f 28/105/49 30/106/49 32/107/49 34/108/49 36/109/49 38/110/49 40/111/49 42/112/49 44/113/49 46/114/49 48/115/49 50/116/49 52/117/49 54/118/49 56/119/49 58/120/49 60/121/49 62/122/49 64/123/49 66/124/49 68/125/49 70/126/49 72/127/49 74/128/49 76/129/49 78/130/49 80/131/49 82/132/49 84/133/49 86/134/49 88/135/49 26/136/49
f 85/103/50 87/137/50 88/138/50 86/104/50
f 87/137/51 25/139/51 26/140/51 88/138/51
f 25/141/52 87/142/52 85/143/52 83/144/52 81/145/52 79/146/52 77/147/52 75/148/52 73/149/52 71/150/52 69/151/52 67/152/52 65/153/52 63/154/52 61/155/52 59/156/52 57/157/52 55/158/52 53/159/52 51/160/52 49/161/52 47/162/52 45/163/52 43/164/52 41/165/52 39/166/52 37/167/52 35/168/52 33/169/52 31/170/52 29/171/52 27/172/52
o Cube.005_Cube.012
v -0.482772 -0.052051 -1.913211
v -0.482772 0.243666 -1.913211
v -0.482772 -0.052051 -2.908284
v -0.482772 0.243666 -2.908284
v 0.512300 -0.052051 -1.913211
v 0.512300 0.243666 -1.913211
v 0.512300 -0.052051 -2.908284
v 0.512300 0.243666 -2.908284
vt 0.375000 0.000000
vt 0.625000 0.000000
vt 0.625000 0.250000
vt 0.375000 0.250000
vt 0.625000 0.500000
vt 0.375000 0.500000
vt 0.625000 0.750000
vt 0.375000 0.750000
vt 0.625000 1.000000
vt 0.375000 1.000000
vt 0.125000 0.500000
vt 0.125000 0.750000
vt 0.875000 0.500000
vt 0.875000 0.750000
vn -1.0000 0.0000 0.0000
vn 0.0000 0.0000 -1.0000
vn 1.0000 0.0000 0.0000
vn 0.0000 0.0000 1.0000
vn 0.0000 -1.0000 0.0000
vn 0.0000 1.0000 0.0000
usemtl Material.006
s off
f 89/173/53 90/174/53 92/175/53 91/176/53
f 91/176/54 92/175/54 96/177/54 95/178/54
f 95/178/55 96/177/55 94/179/55 93/180/55
f 93/180/56 94/179/56 90/181/56 89/182/56
f 91/183/57 95/178/57 93/180/57 89/184/57
f 96/177/58 92/185/58 90/186/58 94/179/58
o Cube.004_Cube.011
v -0.300969 0.231798 -2.095014
v -0.300969 0.419458 -2.095014
v -0.300969 0.231798 -2.726481
v -0.300969 0.419458 -2.726481
v 0.330497 0.231798 -2.095014
v 0.330497 0.419458 -2.095014
v 0.330497 0.231798 -2.726481
v 0.330497 0.419458 -2.726481
vt 0.375000 0.000000
vt 0.625000 0.000000
vt 0.625000 0.250000
vt 0.375000 0.250000
vt 0.625000 0.500000
vt 0.375000 0.500000
vt 0.625000 0.750000
vt 0.375000 0.750000
vt 0.625000 1.000000
vt 0.375000 1.000000
vt 0.125000 0.500000
vt 0.125000 0.750000
vt 0.875000 0.500000
vt 0.875000 0.750000
vn -1.0000 0.0000 0.0000
vn 0.0000 0.0000 -1.0000
vn 1.0000 0.0000 0.0000
vn 0.0000 0.0000 1.0000
vn 0.0000 -1.0000 0.0000
vn 0.0000 1.0000 0.0000
usemtl Material.006
s off
f 97/187/59 98/188/59 100/189/59 99/190/59
f 99/190/60 100/189/60 104/191/60 103/192/60
f 103/192/61 104/191/61 102/193/61 101/194/61
f 101/194/62 102/193/62 98/195/62 97/196/62
f 99/197/63 103/192/63 101/194/63 97/198/63
f 104/191/64 100/199/64 98/200/64 102/193/64
o Cube.003_Cube.010
v -0.191973 0.396339 -2.204011
v -0.191973 0.550278 -2.204011
v -0.191973 0.396339 -2.617484
v -0.191973 0.550278 -2.617484
v 0.221501 0.396339 -2.204011
v 0.221501 0.550278 -2.204011
v 0.221501 0.396339 -2.617484
v 0.221501 0.550278 -2.617484
vt 0.375000 0.000000
vt 0.625000 0.000000
vt 0.625000 0.250000
vt 0.375000 0.250000
vt 0.625000 0.500000
vt 0.375000 0.500000
vt 0.625000 0.750000
vt 0.375000 0.750000
vt 0.625000 1.000000
vt 0.375000 1.000000
vt 0.125000 0.500000
vt 0.125000 0.750000
vt 0.875000 0.500000
vt 0.875000 0.750000
vn -1.0000 0.0000 0.0000
vn 0.0000 0.0000 -1.0000
vn 1.0000 0.0000 0.0000
vn 0.0000 0.0000 1.0000
vn 0.0000 -1.0000 0.0000
vn 0.0000 1.0000 0.0000
usemtl Material.006
s off
f 105/201/65 106/202/65 108/203/65 107/204/65
f 107/204/66 108/203/66 112/205/66 111/206/66
f 111/206/67 112/205/67 110/207/67 109/208/67
f 109/208/68 110/207/68 106/209/68 105/210/68
f 107/211/69 111/206/69 109/208/69 105/212/69
f 112/205/70 108/213/70 106/214/70 110/207/70
o Cube.008_Cube.015
v -2.626474 0.396339 0.230491
v -2.626474 0.550278 0.230491
v -2.626474 0.396339 -0.182983
v -2.626474 0.550278 -0.182983
v -2.213001 0.396339 0.230491
v -2.213001 0.550278 0.230491
v -2.213001 0.396339 -0.182983
v -2.213001 0.550278 -0.182983
vt 0.375000 0.000000
vt 0.625000 0.000000
vt 0.625000 0.250000
vt 0.375000 0.250000
vt 0.625000 0.500000
vt 0.375000 0.500000
vt 0.625000 0.750000
vt 0.375000 0.750000
vt 0.625000 1.000000
vt 0.375000 1.000000
vt 0.125000 0.500000
vt 0.125000 0.750000
vt 0.875000 0.500000
vt 0.875000 0.750000
vn -1.0000 0.0000 0.0000
vn 0.0000 0.0000 -1.0000
vn 1.0000 0.0000 0.0000
vn 0.0000 0.0000 1.0000
vn 0.0000 -1.0000 0.0000
vn 0.0000 1.0000 0.0000
usemtl Material.006
s off
f 113/215/71 114/216/71 116/217/71 115/218/71
f 115/218/72 116/217/72 120/219/72 119/220/72
f 119/220/73 120/219/73 118/221/73 117/222/73
f 117/222/74 118/221/74 114/223/74 113/224/74
f 115/225/75 119/220/75 117/222/75 113/226/75
f 120/219/76 116/227/76 114/228/76 118/221/76
o Cube.007_Cube.014
v -2.735471 0.231798 0.339487
v -2.735471 0.419458 0.339487
v -2.735471 0.231798 -0.291979
v -2.735471 0.419458 -0.291979
v -2.104004 0.231798 0.339487
v -2.104004 0.419458 0.339487
v -2.104004 0.231798 -0.291979
v -2.104004 0.419458 -0.291979
vt 0.375000 0.000000
vt 0.625000 0.000000
vt 0.625000 0.250000
vt 0.375000 0.250000
vt 0.625000 0.500000
vt 0.375000 0.500000
vt 0.625000 0.750000
vt 0.375000 0.750000
vt 0.625000 1.000000
vt 0.375000 1.000000
vt 0.125000 0.500000
vt 0.125000 0.750000
vt 0.875000 0.500000
vt 0.875000 0.750000
vn -1.0000 0.0000 0.0000
vn 0.0000 0.0000 -1.0000
vn 1.0000 0.0000 0.0000
vn 0.0000 0.0000 1.0000
vn 0.0000 -1.0000 0.0000
vn 0.0000 1.0000 0.0000
usemtl Material.006
s off
f 121/229/77 122/230/77 124/231/77 123/232/77
f 123/232/78 124/231/78 128/233/78 127/234/78
f 127/234/79 128/233/79 126/235/79 125/236/79
f 125/236/80 126/235/80 122/237/80 121/238/80
f 123/239/81 127/234/81 125/236/81 121/240/81
f 128/233/82 124/241/82 122/242/82 126/235/82
o Cube.006_Cube.013
v -2.917274 -0.052051 0.521290
v -2.917274 0.243666 0.521290
v -2.917274 -0.052051 -0.473782
v -2.917274 0.243666 -0.473782
v -1.922201 -0.052051 0.521290
v -1.922201 0.243666 0.521290
v -1.922201 -0.052051 -0.473782
v -1.922201 0.243666 -0.473782
vt 0.375000 0.000000
vt 0.625000 0.000000
vt 0.625000 0.250000
vt 0.375000 0.250000
vt 0.625000 0.500000
vt 0.375000 0.500000
vt 0.625000 0.750000
vt 0.375000 0.750000
vt 0.625000 1.000000
vt 0.375000 1.000000
vt 0.125000 0.500000
vt 0.125000 0.750000
vt 0.875000 0.500000
vt 0.875000 0.750000
vn -1.0000 0.0000 0.0000
vn 0.0000 0.0000 -1.0000
vn 1.0000 0.0000 0.0000
vn 0.0000 0.0000 1.0000
vn 0.0000 -1.0000 0.0000
vn 0.0000 1.0000 0.0000
usemtl Material.006
s off
f 129/243/83 130/244/83 132/245/83 131/246/83
f 131/246/84 132/245/84 136/247/84 135/248/84
f 135/248/85 136/247/85 134/249/85 133/250/85
f 133/250/86 134/249/86 130/251/86 129/252/86
f 131/253/87 135/248/87 133/250/87 129/254/87
f 136/247/88 132/255/88 130/256/88 134/249/88
o Cube.011_Cube.018
v -0.191973 0.396339 2.649872
v -0.191973 0.550278 2.649872
v -0.191973 0.396339 2.236398
v -0.191973 0.550278 2.236398
v 0.221501 0.396339 2.649872
v 0.221501 0.550278 2.649872
v 0.221501 0.396339 2.236398
v 0.221501 0.550278 2.236398
vt 0.375000 0.000000
vt 0.625000 0.000000
vt 0.625000 0.250000
vt 0.375000 0.250000
vt 0.625000 0.500000
vt 0.375000 0.500000
vt 0.625000 0.750000
vt 0.375000 0.750000
vt 0.625000 1.000000
vt 0.375000 1.000000
vt 0.125000 0.500000
vt 0.125000 0.750000
vt 0.875000 0.500000
vt 0.875000 0.750000
vn -1.0000 0.0000 0.0000
vn 0.0000 0.0000 -1.0000
vn 1.0000 0.0000 0.0000
vn 0.0000 0.0000 1.0000
vn 0.0000 -1.0000 0.0000
vn 0.0000 1.0000 0.0000
usemtl Material.006
s off
f 137/257/89 138/258/89 140/259/89 139/260/89
f 139/260/90 140/259/90 144/261/90 143/262/90
f 143/262/91 144/261/91 142/263/91 141/264/91
f 141/264/92 142/263/92 138/265/92 137/266/92
f 139/267/93 143/262/93 141/264/93 137/268/93
f 144/261/94 140/269/94 138/270/94 142/263/94
o Cube.010_Cube.017
v -0.300969 0.231798 2.758868
v -0.300969 0.419458 2.758868
v -0.300969 0.231798 2.127402
v -0.300969 0.419458 2.127402
v 0.330497 0.231798 2.758868
v 0.330497 0.419458 2.758868
v 0.330497 0.231798 2.127402
v 0.330497 0.419458 2.127402
vt 0.375000 0.000000
vt 0.625000 0.000000
vt 0.625000 0.250000
vt 0.375000 0.250000
vt 0.625000 0.500000
vt 0.375000 0.500000
vt 0.625000 0.750000
vt 0.375000 0.750000
vt 0.625000 1.000000
vt 0.375000 1.000000
vt 0.125000 0.500000
vt 0.125000 0.750000
vt 0.875000 0.500000
vt 0.875000 0.750000
vn -1.0000 0.0000 0.0000
vn 0.0000 0.0000 -1.0000
vn 1.0000 0.0000 0.0000
vn 0.0000 0.0000 1.0000
vn 0.0000 -1.0000 0.0000
vn 0.0000 1.0000 0.0000
usemtl Material.006
s off
f 145/271/95 146/272/95 148/273/95 147/274/95
f 147/274/96 148/273/96 152/275/96 151/276/96
f 151/276/97 152/275/97 150/277/97 149/278/97
f 149/278/98 150/277/98 146/279/98 145/280/98
f 147/281/99 151/276/99 149/278/99 145/282/99
f 152/275/100 148/283/100 146/284/100 150/277/100
o Cube.009_Cube.016
v -0.482772 -0.052051 2.940671
v -0.482772 0.243666 2.940671
v -0.482772 -0.052051 1.945598
v -0.482772 0.243666 1.945598
v 0.512300 -0.052051 2.940671
v 0.512300 0.243666 2.940671
v 0.512300 -0.052051 1.945598
v 0.512300 0.243666 1.945598
vt 0.375000 0.000000
vt 0.625000 0.000000
vt 0.625000 0.250000
vt 0.375000 0.250000
vt 0.625000 0.500000
vt 0.375000 0.500000
vt 0.625000 0.750000
vt 0.375000 0.750000
vt 0.625000 1.000000
vt 0.375000 1.000000
vt 0.125000 0.500000
vt 0.125000 0.750000
vt 0.875000 0.500000
vt 0.875000 0.750000
vn -1.0000 0.0000 0.0000
vn 0.0000 0.0000 -1.0000
vn 1.0000 0.0000 0.0000
vn 0.0000 0.0000 1.0000
vn 0.0000 -1.0000 0.0000
vn 0.0000 1.0000 0.0000
usemtl Material.006
s off
f 153/285/101 154/286/101 156/287/101 155/288/101
f 155/288/102 156/287/102 160/289/102 159/290/102
f 159/290/103 160/289/103 158/291/103 157/292/103
f 157/292/104 158/291/104 154/293/104 153/294/104
f 155/295/105 159/290/105 157/292/105 153/296/105
f 160/289/106 156/297/106 154/298/106 158/291/106
